# xmcd
#
# Track frame offsets: 
#        150
#        15772
#        29667
#        44938
#        62203
#        86240
#        113498
#        130420
#        175129
#        194448
#        210376
#        223358
#        242368
#        267218
#        287416
#        305100
#
# Disc length: 4289 seconds
#
# Revision: 0
# Processed by: cddbd v1.5.2PL0 Copyright (c) Steve Scherf et al.
# Submitted via: ExactAudioCopy v0.95b3
#
DISCID=ef10bf10
DTITLE=The Rolling Stones  - The Trident Mixes  FLAC
DYEAR=1900
DGENRE=
TTITLE0=Jiving Sister Fanny
TTITLE1=I'm Going Down
TTITLE2=Hamburger To Go
TTITLE3=Downtown Susie
TTITLE4=Blood Red Wine
TTITLE5=Travellin' Man
TTITLE6=Family
TTITLE7=Still A Fool
TTITLE8=Family (Retake)
TTITLE9=Leather Jacket
TTITLE10=Dancing In The Light
TTITLE11=Potted Shrimp
TTITLE12=Alladin Story
TTITLE13=I Was Just A Country Boy
TTITLE14=Who Am I ?
TTITLE15=Trident Jam
EXTD=
EXTT0=
EXTT1=
EXTT2=
EXTT3=
EXTT4=
EXTT5=
EXTT6=
EXTT7=
EXTT8=
EXTT9=
EXTT10=
EXTT11=
EXTT12=
EXTT13=
EXTT14=
EXTT15=
PLAYORDER=
